<svg xmlns="http://www.w3.org/2000/svg" width="20.63" height="19.719" viewBox="0 0 20.63 19.719"><defs><style>.cls-1{fill:#fff;fill-rule:evenodd}</style></defs><path id="Корзина" class="cls-1" d="M1092.58 33.46l-1.21 8.912a2.025 2.025 0 0 1-1.88 1.635h-10.88a2.025 2.025 0 0 1-1.88-1.635l-1.47-10.287a3.738 3.738 0 0 1-.13-1.055H1073a1 1 0 0 1 0-2h4a.992.992 0 0 1 .1 1.98h13.97c1.1 0 1.77 1.131 1.51 2.45zm-13.85 8.518l-1.31-9h13.2l-.03.2-1.18 8.788a.033.033 0 0 0-.01.014h-10.67zm.52 3.009a1.874 1.874 0 1 1-1.88 1.874 1.874 1.874 0 0 1 1.88-1.874zm9 0a1.874 1.874 0 1 1-1.88 1.874 1.874 1.874 0 0 1 1.88-1.874z" transform="translate(-1072 -29.031)"/></svg>