<svg xmlns="http://www.w3.org/2000/svg" width="20" height="20" viewBox="0 0 20 20"><defs><style>.cls-1{fill:#fff;fill-rule:evenodd}</style></defs><path id="Чербокс_вкл._" data-name="Чербокс вкл." class="cls-1" d="M190.146 290.014h11.708a4.16 4.16 0 0 1 4.16 4.161v11.65a4.16 4.16 0 0 1-4.16 4.161h-11.708a4.161 4.161 0 0 1-4.161-4.161v-11.65a4.161 4.161 0 0 1 4.161-4.161zM190 291h12a3 3 0 0 1 3 3v12a3 3 0 0 1-3 3h-12a3 3 0 0 1-3-3v-12a3 3 0 0 1 3-3zm12.369 5.956l-5.93 5.93-1.765 1.765-1.765-1.765-3.069-3.07 1.765-1.765 3.07 3.07 5.93-5.931z" transform="translate(-186 -290)"/></svg>