<svg xmlns="http://www.w3.org/2000/svg" width="31.375" height="31.41" viewBox="0 0 31.375 31.41"><defs><style>.cls-1{fill:#fff;fill-rule:evenodd;opacity:.8}</style></defs><path id="ВК" class="cls-1" d="M193.865 2352.23a15.69 15.69 0 1 1-15.692 15.69 15.687 15.687 0 0 1 15.692-15.69zm5.967 18.25a3.1 3.1 0 0 0-.757-2.2 3.7 3.7 0 0 0-2.016-1.09v-.07a2.881 2.881 0 0 0 1.371-1.14 3.211 3.211 0 0 0 .5-1.77 3.133 3.133 0 0 0-.362-1.52 2.6 2.6 0 0 0-1.091-1.05 4.522 4.522 0 0 0-1.446-.48 17.993 17.993 0 0 0-2.269-.11h-4.8v13.59h5.438a8.909 8.909 0 0 0 2.332-.25 4.783 4.783 0 0 0 1.686-.86 3.684 3.684 0 0 0 1.032-1.27 3.909 3.909 0 0 0 .383-1.78zm-4.372-5.59a1.517 1.517 0 0 0-.169-.67 1 1 0 0 0-.527-.5 2.111 2.111 0 0 0-.8-.17c-.308 0-.766-.01-1.374-.01h-.237v2.88h.43c.583 0 .994-.01 1.228-.02a2.044 2.044 0 0 0 .727-.19 1.129 1.129 0 0 0 .563-.53 1.9 1.9 0 0 0 .157-.79zm.856 5.53a1.673 1.673 0 0 0-.255-.99 1.533 1.533 0 0 0-.767-.54 2.658 2.658 0 0 0-.853-.13c-.362-.01-.849-.01-1.456-.01h-.63v3.4h.184c.888 0 1.5-.01 1.842-.02a2.867 2.867 0 0 0 1.041-.24 1.381 1.381 0 0 0 .68-.59 1.813 1.813 0 0 0 .214-.88z" transform="translate(-178.188 -2352.22)"/></svg>